<svg width="20" height="23" viewBox="0 0 20 23" fill="none" xmlns="http://www.w3.org/2000/svg">
<mask id="path-1-inside-1_48_44" fill="white">
<path d="M0 10H20V23H0V10Z"/>
</mask>
<path d="M20 23V25H22V23H20ZM0 23H-2V25H0V23ZM18 10V23H22V10H18ZM20 21H0V25H20V21ZM2 23V10H-2V23H2Z" fill="#B63030" mask="url(#path-1-inside-1_48_44)"/>
<mask id="path-3-inside-2_48_44" fill="white">
<path d="M0 10L10 1.73698e-07L20 10L10 20L0 10Z"/>
</mask>
<path d="M10 1.73698e-07L11.4142 -1.41421L10 -2.82843L8.58579 -1.41421L10 1.73698e-07ZM1.41421 11.4142L11.4142 1.41421L8.58579 -1.41421L-1.41421 8.58579L1.41421 11.4142ZM8.58579 1.41421L18.5858 11.4142L21.4142 8.58579L11.4142 -1.41421L8.58579 1.41421Z" fill="#B63030" mask="url(#path-3-inside-2_48_44)"/>
</svg>
